<?xml version="1.0"?>
<svg xmlns="http://www.w3.org/2000/svg" id="Capa_1" enable-background="new 0 0 512 512" height="512px" viewBox="0 0 512 512" width="512px" class=""><g><path d="m415.447 77.781-64.084 64.085-18.036-18.037c-10.129-10.128-26.609-10.127-36.736 0-4.906 4.907-7.608 11.43-7.608 18.368 0 6.939 2.702 13.461 7.608 18.367l22.971 22.969c.113.13.231.257.354.38l14.06 14.059c4.64 4.641 10.811 7.198 17.375 7.198s12.735-2.557 17.376-7.197l83.457-83.457c10.128-10.128 10.128-26.608 0-36.736-10.13-10.126-26.61-10.124-36.737.001zm26.135 10.601c4.284 4.283 4.284 11.252 0 15.535l-83.457 83.457c-1.809 1.81-4.216 2.808-6.776 2.808-2.559 0-4.965-.997-6.776-2.808l-13.691-13.69c-.113-.131-.232-.258-.356-.383l-23.338-23.337c-2.075-2.075-3.218-4.833-3.218-7.767 0-2.935 1.143-5.693 3.219-7.768 4.284-4.284 11.255-4.283 15.535 0l19.65 19.65c2.4 2.402 5.591 3.723 8.986 3.723 3.393 0 6.584-1.321 8.985-3.721l65.699-65.699c4.286-4.285 11.257-4.283 15.538 0z" data-original="#000000" class="active-path" data-old_color="#000000" fill="#FFFFFF"/><path d="m374.386.058c-75.881 0-137.614 61.733-137.614 137.614 0 11.619 1.472 22.897 4.197 33.682h-63.54c-7.665 0-14.751 4.469-18.055 11.387l-15.86 33.219h-27.669c-16.295 0-31.019 9.017-38.426 23.532l-20.161 39.51h-39.416c-9.791 0-17.757 7.965-17.757 17.756v14.275c0 8.933 6.637 16.326 15.235 17.557-9.587 8.774-15.32 21.314-15.32 34.744v124.986c0 13.025 10.596 23.622 23.622 23.622h34.937c13.025 0 23.622-10.596 23.622-23.622v-.767c1.478.203 2.972.317 4.478.317h265.885c1.505 0 3-.114 4.478-.317v.767c0 13.025 10.596 23.622 23.622 23.622h34.937c13.025 0 23.622-10.596 23.622-23.622v-124.986c0-13.43-5.733-25.971-15.321-34.743 8.598-1.231 15.236-8.624 15.236-17.557v-14.275c0-9.791-7.966-17.756-17.757-17.756h-39.415l-1.957-3.834c55.57-2.271 104.905-38.178 123.894-90.817l.298-.833c1.392-3.898-.639-8.187-4.538-9.579-3.897-1.388-8.187.638-9.579 4.538l-.289.811c-17.479 48.454-63.849 81.009-115.385 81.009-.669 0-1.335-.015-2.001-.025l-10.603-20.779c-7.407-14.514-22.13-23.532-38.426-23.532h-29.377l-15.861-33.22c-3.303-6.916-10.389-11.386-18.054-11.386h-3.588c-3.064-10.707-4.714-22.005-4.714-33.682 0-67.615 55.009-122.624 122.624-122.624s122.62 55.007 122.62 122.622c0 3.001-.109 6.033-.325 9.01-.299 4.129 2.806 7.718 6.934 8.017 4.152.313 7.718-2.806 8.017-6.934.242-3.337.364-6.733.364-10.094 0-75.88-61.733-137.613-137.614-137.613zm-359.311 310.976v-14.275c0-1.525 1.241-2.767 2.768-2.767h31.766l-10.109 19.81h-21.658c-1.526 0-2.767-1.241-2.767-2.768zm52.115 177.286c0 4.76-3.872 8.632-8.632 8.632h-34.936c-4.76 0-8.632-3.872-8.632-8.632v-62.24l47.392 51.184c1.467 1.584 3.083 3.003 4.808 4.257zm357.02 0c0 4.76-3.873 8.632-8.632 8.632h-34.937c-4.76 0-8.632-3.872-8.632-8.632v-6.799c1.726-1.254 3.341-2.673 4.808-4.257l47.393-51.184zm0-124.986v30.751c0 6.404-2.397 12.52-6.748 17.219l-51.642 55.776c-3.414 3.686-8.253 5.801-13.277 5.801h-265.885c-5.024 0-9.864-2.115-13.277-5.801l-51.644-55.775c-4.351-4.699-6.747-10.815-6.747-17.219v-30.751c0-12.667 7.479-24.176 19.054-29.32l11.752-5.223h347.608l11.752 5.223c11.575 5.143 19.054 16.652 19.054 29.319zm-2.852-69.342c1.526 0 2.768 1.241 2.768 2.767v14.275c0 1.526-1.241 2.768-2.768 2.768h-21.658l-10.108-19.81zm-98.002-63.042c10.633 0 20.241 5.884 25.074 15.356l34.44 67.496h-326.541l34.441-67.496c4.833-9.472 14.44-15.356 25.074-15.356h32.334zm-63.292-44.606c1.921 0 3.699 1.121 4.527 2.855l12.777 26.761h-117.244l12.776-26.76c.829-1.735 2.607-2.856 4.528-2.856z" data-original="#000000" class="active-path" data-old_color="#000000" fill="#FFFFFF"/><path d="m289.353 407.861h-87.016c-4.14 0-7.495 3.355-7.495 7.495s3.355 7.495 7.495 7.495h84.719l-7.809 22.776h-119.295l-7.809-22.776h15.593c4.14 0 7.495-3.355 7.495-7.495s-3.355-7.495-7.495-7.495h-17.889c-4.302 0-8.363 2.089-10.863 5.59-2.5 3.5-3.16 8.02-1.765 12.089l8.933 26.054c1.849 5.396 6.924 9.021 12.628 9.021h121.64c5.704 0 10.779-3.625 12.628-9.02l8.934-26.055c1.395-4.07.735-8.589-1.766-12.089-2.5-3.501-6.561-5.59-10.863-5.59z" data-original="#000000" class="active-path" data-old_color="#000000" fill="#FFFFFF"/><path d="m82.447 348.594c-19.019 0-34.492 15.473-34.492 34.492s15.473 34.493 34.492 34.493 34.493-15.474 34.493-34.493c0-19.02-15.474-34.492-34.493-34.492zm0 53.995c-10.754 0-19.502-8.749-19.502-19.503 0-10.753 8.749-19.502 19.502-19.502 10.754 0 19.503 8.749 19.503 19.502 0 10.754-8.749 19.503-19.503 19.503z" data-original="#000000" class="active-path" data-old_color="#000000" fill="#FFFFFF"/><path d="m356.753 348.594c-19.019 0-34.493 15.473-34.493 34.492s15.474 34.493 34.493 34.493 34.492-15.474 34.492-34.493c.001-19.02-15.472-34.492-34.492-34.492zm0 53.995c-10.754 0-19.503-8.749-19.503-19.503 0-10.753 8.749-19.502 19.503-19.502 10.753 0 19.502 8.749 19.502 19.502.001 10.754-8.748 19.503-19.502 19.503z" data-original="#000000" class="active-path" data-old_color="#000000" fill="#FFFFFF"/><path d="m147.624 396.148c-4.143 0-7.5-3.357-7.5-7.5v-18.098c0-4.143 3.357-7.5 7.5-7.5s7.5 3.357 7.5 7.5v18.098c0 4.143-3.357 7.5-7.5 7.5z" data-original="#000000" class="active-path" data-old_color="#000000" fill="#FFFFFF"/><path d="m176.414 396.148c-4.143 0-7.5-3.357-7.5-7.5v-18.098c0-4.143 3.357-7.5 7.5-7.5s7.5 3.357 7.5 7.5v18.098c0 4.143-3.357 7.5-7.5 7.5z" data-original="#000000" class="active-path" data-old_color="#000000" fill="#FFFFFF"/><path d="m205.205 396.148c-4.143 0-7.5-3.357-7.5-7.5v-18.098c0-4.143 3.357-7.5 7.5-7.5s7.5 3.357 7.5 7.5v18.098c0 4.143-3.357 7.5-7.5 7.5z" data-original="#000000" class="active-path" data-old_color="#000000" fill="#FFFFFF"/><path d="m233.995 396.148c-4.143 0-7.5-3.357-7.5-7.5v-18.098c0-4.143 3.357-7.5 7.5-7.5s7.5 3.357 7.5 7.5v18.098c0 4.143-3.357 7.5-7.5 7.5z" data-original="#000000" class="active-path" data-old_color="#000000" fill="#FFFFFF"/><path d="m262.786 396.148c-4.143 0-7.5-3.357-7.5-7.5v-18.098c0-4.143 3.357-7.5 7.5-7.5s7.5 3.357 7.5 7.5v18.098c0 4.143-3.357 7.5-7.5 7.5z" data-original="#000000" class="active-path" data-old_color="#000000" fill="#FFFFFF"/><path d="m291.576 396.148c-4.143 0-7.5-3.357-7.5-7.5v-18.098c0-4.143 3.357-7.5 7.5-7.5s7.5 3.357 7.5 7.5v18.098c0 4.143-3.357 7.5-7.5 7.5z" data-original="#000000" class="active-path" data-old_color="#000000" fill="#FFFFFF"/></g> </svg>
